<mxfile host="app.diagrams.net" agent="Mozilla/5.0 (Macintosh; Intel Mac OS X 10_15_7) AppleWebKit/537.36 (KHTML, like Gecko) Chrome/128.0.0.0 Safari/537.36" version="24.7.16">
  <diagram name="第 1 页" id="9gPRrEpVY7MaZTHXlca_">
    <mxGraphModel dx="2474" dy="865" grid="1" gridSize="10" guides="1" tooltips="1" connect="1" arrows="1" fold="1" page="1" pageScale="1" pageWidth="827" pageHeight="1169" math="0" shadow="0">
      <root>
        <mxCell id="0" />
        <mxCell id="1" parent="0" />
        <mxCell id="JQxF4STOj-FJM_ch2QoR-9" value="" style="edgeStyle=orthogonalEdgeStyle;rounded=0;orthogonalLoop=1;jettySize=auto;html=1;" edge="1" parent="1" source="JQxF4STOj-FJM_ch2QoR-4" target="JQxF4STOj-FJM_ch2QoR-8">
          <mxGeometry relative="1" as="geometry" />
        </mxCell>
        <mxCell id="JQxF4STOj-FJM_ch2QoR-4" value="获取文本" style="whiteSpace=wrap;html=1;strokeWidth=2;fillColor=#1ba1e2;strokeColor=#006EAF;fontColor=#ffffff;" vertex="1" parent="1">
          <mxGeometry x="186.25" y="310" width="131.25" height="60" as="geometry" />
        </mxCell>
        <mxCell id="JQxF4STOj-FJM_ch2QoR-16" value="" style="edgeStyle=orthogonalEdgeStyle;rounded=0;orthogonalLoop=1;jettySize=auto;html=1;" edge="1" parent="1" source="JQxF4STOj-FJM_ch2QoR-8" target="JQxF4STOj-FJM_ch2QoR-15">
          <mxGeometry relative="1" as="geometry" />
        </mxCell>
        <mxCell id="JQxF4STOj-FJM_ch2QoR-8" value="根据chunk配置进行分块" style="whiteSpace=wrap;html=1;strokeWidth=2;fillColor=#1ba1e2;strokeColor=#006EAF;fontColor=#ffffff;" vertex="1" parent="1">
          <mxGeometry x="168.75" y="420" width="165" height="60" as="geometry" />
        </mxCell>
        <mxCell id="JQxF4STOj-FJM_ch2QoR-18" value="" style="edgeStyle=orthogonalEdgeStyle;rounded=0;orthogonalLoop=1;jettySize=auto;html=1;" edge="1" parent="1" source="JQxF4STOj-FJM_ch2QoR-15" target="JQxF4STOj-FJM_ch2QoR-17">
          <mxGeometry relative="1" as="geometry" />
        </mxCell>
        <mxCell id="JQxF4STOj-FJM_ch2QoR-19" value="" style="edgeStyle=orthogonalEdgeStyle;rounded=0;orthogonalLoop=1;jettySize=auto;html=1;" edge="1" parent="1" source="JQxF4STOj-FJM_ch2QoR-15" target="JQxF4STOj-FJM_ch2QoR-17">
          <mxGeometry relative="1" as="geometry" />
        </mxCell>
        <mxCell id="JQxF4STOj-FJM_ch2QoR-24" value="向量检索" style="edgeLabel;html=1;align=center;verticalAlign=middle;resizable=0;points=[];" vertex="1" connectable="0" parent="JQxF4STOj-FJM_ch2QoR-19">
          <mxGeometry x="-0.1942" y="-2" relative="1" as="geometry">
            <mxPoint as="offset" />
          </mxGeometry>
        </mxCell>
        <mxCell id="JQxF4STOj-FJM_ch2QoR-21" value="" style="edgeStyle=orthogonalEdgeStyle;rounded=0;orthogonalLoop=1;jettySize=auto;html=1;" edge="1" parent="1" source="JQxF4STOj-FJM_ch2QoR-15" target="JQxF4STOj-FJM_ch2QoR-20">
          <mxGeometry relative="1" as="geometry" />
        </mxCell>
        <mxCell id="JQxF4STOj-FJM_ch2QoR-25" value="文本检索" style="edgeLabel;html=1;align=center;verticalAlign=middle;resizable=0;points=[];" vertex="1" connectable="0" parent="JQxF4STOj-FJM_ch2QoR-21">
          <mxGeometry x="0.265" y="3" relative="1" as="geometry">
            <mxPoint as="offset" />
          </mxGeometry>
        </mxCell>
        <mxCell id="JQxF4STOj-FJM_ch2QoR-23" value="" style="edgeStyle=orthogonalEdgeStyle;rounded=0;orthogonalLoop=1;jettySize=auto;html=1;" edge="1" parent="1" source="JQxF4STOj-FJM_ch2QoR-15" target="JQxF4STOj-FJM_ch2QoR-22">
          <mxGeometry relative="1" as="geometry" />
        </mxCell>
        <mxCell id="JQxF4STOj-FJM_ch2QoR-26" value="混合检索" style="edgeLabel;html=1;align=center;verticalAlign=middle;resizable=0;points=[];" vertex="1" connectable="0" parent="JQxF4STOj-FJM_ch2QoR-23">
          <mxGeometry x="-0.2336" relative="1" as="geometry">
            <mxPoint as="offset" />
          </mxGeometry>
        </mxCell>
        <mxCell id="JQxF4STOj-FJM_ch2QoR-15" value="根据检索设置来进行索引" style="rhombus;whiteSpace=wrap;html=1;strokeWidth=2;fillColor=#1ba1e2;fontColor=#ffffff;strokeColor=#006EAF;" vertex="1" parent="1">
          <mxGeometry x="171.25" y="520" width="160" height="90" as="geometry" />
        </mxCell>
        <mxCell id="JQxF4STOj-FJM_ch2QoR-29" value="" style="edgeStyle=orthogonalEdgeStyle;rounded=0;orthogonalLoop=1;jettySize=auto;html=1;" edge="1" parent="1" source="JQxF4STOj-FJM_ch2QoR-17" target="JQxF4STOj-FJM_ch2QoR-28">
          <mxGeometry relative="1" as="geometry" />
        </mxCell>
        <mxCell id="JQxF4STOj-FJM_ch2QoR-17" value="文本向量化" style="whiteSpace=wrap;html=1;strokeWidth=2;fillColor=#1ba1e2;strokeColor=#006EAF;fontColor=#ffffff;" vertex="1" parent="1">
          <mxGeometry x="-10" y="650" width="120" height="60" as="geometry" />
        </mxCell>
        <mxCell id="JQxF4STOj-FJM_ch2QoR-31" value="" style="edgeStyle=orthogonalEdgeStyle;rounded=0;orthogonalLoop=1;jettySize=auto;html=1;" edge="1" parent="1" source="JQxF4STOj-FJM_ch2QoR-20" target="JQxF4STOj-FJM_ch2QoR-30">
          <mxGeometry relative="1" as="geometry" />
        </mxCell>
        <mxCell id="JQxF4STOj-FJM_ch2QoR-20" value="文本检索" style="rounded=1;whiteSpace=wrap;html=1;strokeWidth=2;fillColor=#1ba1e2;strokeColor=#006EAF;fontColor=#ffffff;" vertex="1" parent="1">
          <mxGeometry x="191.25" y="650" width="120" height="60" as="geometry" />
        </mxCell>
        <mxCell id="JQxF4STOj-FJM_ch2QoR-33" value="" style="edgeStyle=orthogonalEdgeStyle;rounded=0;orthogonalLoop=1;jettySize=auto;html=1;" edge="1" parent="1" source="JQxF4STOj-FJM_ch2QoR-22" target="JQxF4STOj-FJM_ch2QoR-32">
          <mxGeometry relative="1" as="geometry" />
        </mxCell>
        <mxCell id="JQxF4STOj-FJM_ch2QoR-22" value="混合检索" style="whiteSpace=wrap;html=1;strokeWidth=2;fillColor=#1ba1e2;strokeColor=#006EAF;fontColor=#ffffff;" vertex="1" parent="1">
          <mxGeometry x="440" y="650" width="120" height="60" as="geometry" />
        </mxCell>
        <mxCell id="JQxF4STOj-FJM_ch2QoR-28" value="进行向量存储" style="whiteSpace=wrap;html=1;strokeWidth=2;fillColor=#1ba1e2;strokeColor=#006EAF;fontColor=#ffffff;" vertex="1" parent="1">
          <mxGeometry x="-10" y="800" width="120" height="60" as="geometry" />
        </mxCell>
        <mxCell id="JQxF4STOj-FJM_ch2QoR-30" value="存入检索引擎" style="whiteSpace=wrap;html=1;rounded=1;strokeWidth=2;fillColor=#1ba1e2;strokeColor=#006EAF;fontColor=#ffffff;" vertex="1" parent="1">
          <mxGeometry x="191.25" y="800" width="120" height="60" as="geometry" />
        </mxCell>
        <mxCell id="JQxF4STOj-FJM_ch2QoR-32" value="文本向量化 + 文本检索" style="whiteSpace=wrap;html=1;strokeWidth=2;fillColor=#1ba1e2;fontColor=#ffffff;strokeColor=#006EAF;" vertex="1" parent="1">
          <mxGeometry x="425" y="800" width="150" height="60" as="geometry" />
        </mxCell>
      </root>
    </mxGraphModel>
  </diagram>
</mxfile>
